<?xml version="1.0" encoding="UTF-8"?>
<!DOCTYPE svg PUBLIC "-//W3C//DTD SVG 1.1//EN" "http://www.w3.org/Graphics/SVG/1.1/DTD/svg11.dtd">
<!-- Creator: CorelDRAW -->
<svg xmlns="http://www.w3.org/2000/svg" xml:space="preserve" width="1772px" height="1772px" version="1.1" style="shape-rendering:geometricPrecision; text-rendering:geometricPrecision; image-rendering:optimizeQuality; fill-rule:evenodd; clip-rule:evenodd"
viewBox="0 0 1772 1772"
 xmlns:xlink="http://www.w3.org/1999/xlink"
 xmlns:xodm="http://www.corel.com/coreldraw/odm/2003">
 <defs>
  <style type="text/css">
   <![CDATA[
    .fil0 {fill:none}
    .fil1 {fill:white;fill-rule:nonzero}
   ]]>
  </style>
 </defs>
 <g id="Livello_x0020_1">
  <metadata id="CorelCorpID_0Corel-Layer"/>
  <rect class="fil0" x="-0.17" y="0.17" width="1772" height="1772"/>
  <path class="fil1" d="M885.83 580.48c156.98,0 284.25,-127.26 284.25,-284.24 0,-156.99 -127.27,-284.25 -284.25,-284.25 -156.99,0 -284.25,127.26 -284.25,284.25 0,156.98 127.26,284.24 284.25,284.24zm0 258.41l-81.08 -33.91c-151.17,-62.99 -313.32,-95.29 -477.08,-95.29l-113.7 0c-85.6,0 -155.05,69.45 -155.05,155.04l0 620.18c0,85.6 69.45,155.05 155.05,155.05l113.7 0c163.76,0 325.91,32.3 477.08,95.29l41.35 17.12c25.51,10.65 53.94,10.65 79.46,0l41.34 -17.12c151.17,-62.99 313.32,-95.29 477.09,-95.29l113.7 0c85.59,0 155.04,-69.45 155.04,-155.05l0 -620.18c0,-85.59 -69.45,-155.04 -155.04,-155.04l-113.7 0c-163.77,0 -325.92,32.3 -477.09,95.29l-81.07 33.91z"/>
 </g>
</svg>
